<?xml version="1.0" encoding="utf-8"?>
<!-- Generator: Adobe Illustrator 23.0.1, SVG Export Plug-In . SVG Version: 6.00 Build 0)  -->
<svg version="1.1" id="圖層_1" xmlns="http://www.w3.org/2000/svg" xmlns:xlink="http://www.w3.org/1999/xlink" x="0px" y="0px"
	 viewBox="0 0 119.29 119.29" style="enable-background:new 0 0 119.29 119.29;" xml:space="preserve">
<style type="text/css">
	.st0{fill:#FFFFFF;}
</style>
<g>
	<g>
		<path class="st0" d="M116.29,119.29c-0.77,0-1.54-0.29-2.12-0.88L0.88,5.12c-1.17-1.17-1.17-3.07,0-4.24
			c1.17-1.17,3.07-1.17,4.24,0l113.29,113.29c1.17,1.17,1.17,3.07,0,4.24C117.83,119,117.06,119.29,116.29,119.29z"/>
	</g>
	<g>
		<path class="st0" d="M3,119.29c-0.77,0-1.54-0.29-2.12-0.88c-1.17-1.17-1.17-3.07,0-4.24L114.17,0.88c1.17-1.17,3.07-1.17,4.24,0
			c1.17,1.17,1.17,3.07,0,4.24L5.12,118.41C4.54,119,3.77,119.29,3,119.29z"/>
	</g>
</g>
</svg>
