<svg id="圖層_1" data-name="圖層 1" xmlns="http://www.w3.org/2000/svg" viewBox="0 0 275.08 91.52"><defs><style>.cls-1{fill:#fff;}.cls-2{fill:#6d4914;}</style></defs><title>title</title><polygon class="cls-1" points="249.5 80.7 0 80.7 14.77 0 264.26 0 249.5 80.7"/><polygon class="cls-1" points="268.68 10.81 254.9 86.11 11.8 86.11 10.81 91.52 260.31 91.52 275.08 10.81 268.68 10.81"/><path class="cls-2" d="M72.52,49H65.78l4.22.9c-.68,1.45-1.41,2.81-2,4H78.79v4.31H41.2V53.9H51.66a20.91,20.91,0,0,0-1.75-3.84L53.28,49H47.05V37.9a34.93,34.93,0,0,1-4.48,2.6,21.06,21.06,0,0,0-3.12-3.75,27.66,27.66,0,0,0,7.26-4.57,29.65,29.65,0,0,0-4.53-3.58l2.73-2.82a24.84,24.84,0,0,1,4.78,3.46,26.11,26.11,0,0,0,3.25-4.4H42.74V20.75H55.37l.85-.21,3.37,1.7A30.36,30.36,0,0,1,55,30.56H65.22a41.42,41.42,0,0,1-5.63-9.85l4.52-1.37a32.13,32.13,0,0,0,2.18,4.35,31.53,31.53,0,0,0,4.35-4.09l3.84,2.73c-1.88,1.58-4.1,3.24-5.93,4.56.6.77,1.24,1.45,1.92,2.18a38.11,38.11,0,0,0,5-4.52l3.71,2.64c-1.79,1.58-3.92,3.2-5.76,4.52a27.67,27.67,0,0,0,7.25,4.23,19.54,19.54,0,0,0-3.45,4.26,28.53,28.53,0,0,1-4.65-2.64ZM52.72,33.16A32.59,32.59,0,0,1,48,37.22H72a34.92,34.92,0,0,1-4.48-3.93v1.5H52.72Zm14.34,8.07H52.21V45H67.06ZM62.88,53.9A37.61,37.61,0,0,0,65.09,49H54.73a17.83,17.83,0,0,1,2,4.18l-2.13.73Z"/><path class="cls-2" d="M124,56.24a91,91,0,0,0-7.21-6.1v4.14c0,2.14-.34,3.29-1.74,4s-3.12.81-5.55.77a14.11,14.11,0,0,0-1.37-4.31c1.41,0,2.9,0,3.33,0s.64-.12.64-.55V50.36c-2.56,2.13-5.12,4.18-7.38,5.93l-2.6-3.59.17,2.39c-5,1-10.37,2-14.46,2.82l-1-4.57c1.75-.25,4-.55,6.32-.85V41.57H87.41V37.26h5.68V34.14H89.93V32.27c-.6.6-1.24,1.15-1.84,1.66a24.57,24.57,0,0,0-1.53-5A29.82,29.82,0,0,0,94.45,19l3.8,1.41c-.21.43-.43.85-.64,1.28,2.39,2.22,5.33,5,6.82,6.66l-2.85,3.37c-.39-.47-.86-1.07-1.41-1.67v4.05h-3v3.12h4.95v4.31H97.18V51.89l4.82-.76.09,1.28c2.52-1.63,6.27-4.23,10-6.92V39.18h-9.26V34.74h13.53l.42-1.92H104.61c1.1-3.54,2.6-9.21,3.45-13.61l4.74.47c-.22.94-.47,2-.73,3.07h7l.81-.17,3.46.47c-.51,3.67-1.41,8-2.26,11.69h5.46v4.44h-9.82v5.93l.69.43a46.37,46.37,0,0,0,4.31-5.93l4.09,2.3c-1.83,2.05-3.75,4.22-5.46,5.85A75.13,75.13,0,0,1,127,52.92ZM90.65,42.72A61.08,61.08,0,0,1,92.23,50l-3.45,1a59.7,59.7,0,0,0-1.41-7.38ZM100,29.92c-1.32-1.45-2.9-3.11-4.48-4.65a42.47,42.47,0,0,1-3.41,4.65ZM98.21,49.68a64.41,64.41,0,0,0,1.36-7.22l3.24.81c-.68,2.44-1.4,5.34-2,7.09Zm8.36-10.16a38.46,38.46,0,0,1,4.65,5.25l-3.63,2.47a50.48,50.48,0,0,0-4.48-5.54Zm11-10.54.46-2.39h-7l-.6,2.39Z"/><path class="cls-2" d="M173,26.3a55.74,55.74,0,0,1-5,3.92,31.21,31.21,0,0,0,6.1,2.39,18.72,18.72,0,0,0-3,4,29.78,29.78,0,0,1-4.86-2v3.67c0,1,.09,1.37.64,1.37h2.09a9.27,9.27,0,0,0,2.18-.22c.08,1,.17,2.48.34,3.46a8.65,8.65,0,0,1-2.48.25h-2.64c-3.59,0-4.27-1.45-4.27-4.9V35.72h-3.92a9.9,9.9,0,0,1-4.7,8.45,18.63,18.63,0,0,0-2.56-2.73v1.28h-8.44c-.17,1-.3,2-.43,2.94h8.87s0,1.16-.08,1.75c-.47,5.76-1,8.54-2.09,9.65a4.48,4.48,0,0,1-3.41,1.4,47.23,47.23,0,0,1-5.64,0,9.51,9.51,0,0,0-1.45-4.23c2.14.17,4.23.22,5.17.22a2,2,0,0,0,1.53-.43c.51-.47.9-1.84,1.2-4.74h-9c.59-2.77,1.28-7,1.66-10.36h7.55V36h-6.18V35.3A33.91,33.91,0,0,1,136.22,37a18.68,18.68,0,0,0-2.73-3.71A28.05,28.05,0,0,0,140.66,30a43.45,43.45,0,0,0-4-2.56l2.9-2.68a31,31,0,0,1,4.48,2.68,20.66,20.66,0,0,0,2.48-2.73h-8.41v-4h11.14l.85-.22L153.25,22a24.11,24.11,0,0,1-8,10.11h5.58v8.49a6.14,6.14,0,0,0,3-5.72v-3H162a29.67,29.67,0,0,1-8.62-11.3l4.06-1.2a17.3,17.3,0,0,0,2.43,4,38.45,38.45,0,0,0,4-3.92l3.63,2.6c-1.75,1.45-3.59,3-5.21,4.14.73.68,1.49,1.32,2.26,1.92a36.37,36.37,0,0,0,4.74-4.44Zm-3.12,18.85a18.9,18.9,0,0,1-4.69,7.6c1.92,1.06,3.67,2.13,4.95,3l-2.56,3.37c-1.45-1-3.5-2.34-5.8-3.71a31.48,31.48,0,0,1-9.52,3.67,14.28,14.28,0,0,0-2.13-3.67A27.33,27.33,0,0,0,157.68,53c-2.09-1.15-4.09-2.3-5.93-3.28l1.71-2h-1V44.3H166.3l.77-.13Zm-14.16,2.52c1.79.94,3.75,1.92,5.67,3a16.22,16.22,0,0,0,2.69-3Z"/><path class="cls-2" d="M194.63,50.66a34.28,34.28,0,0,1-9.55,7.8,33.21,33.21,0,0,0-3.76-3.37A25.07,25.07,0,0,0,190,49Zm25.43-5.93v4H203.21V59.15h-5V48.69h-16.6v-4ZM193.61,24.59H182.18v-4h37v4H207.43v2.3H217V37.3h-32.3V26.89h9Zm-7,18.3V39.05H214.9v3.84Zm2.68-9.21h4.27v-3.2h-4.27Zm13.36-9.09h-4.44v2.3h4.44Zm-4.44,9.09h4.44v-3.2h-4.44Zm11.56,15.48a59.8,59.8,0,0,1,9.86,6.4l-4.06,2.86a51.87,51.87,0,0,0-9.51-6.74Zm-2.39-18.68v3.2h4.48v-3.2Z"/></svg>