<svg id="圖層_1" data-name="圖層 1" xmlns="http://www.w3.org/2000/svg" viewBox="0 0 275.08 91.52"><defs><style>.cls-1{fill:#fff;}.cls-2{fill:#111212;}</style></defs><title>title</title><polygon class="cls-1" points="268.68 10.81 254.9 86.11 11.8 86.11 10.81 91.52 260.31 91.52 275.08 10.81 268.68 10.81"/><polygon class="cls-1" points="249.5 80.7 0 80.7 14.77 0 264.26 0 249.5 80.7"/><path class="cls-2" d="M67.23,50.4C71.79,51.94,77,53.81,80,55.14l-2.3,4C74,57.27,66.37,54.37,61,52.53l1.32-2.13H61.08c-2,3.58-7,7.08-18.34,8.92a25,25,0,0,0-2.82-4.1c7.68-1.15,12-2.9,14.47-4.82H40.14V46.22h17.1a8.91,8.91,0,0,0,.09-1.15V42.25h5v3a8,8,0,0,1,0,1h7.42a27.74,27.74,0,0,0-2.81-2.13l1.53-1.45H66.84A14.82,14.82,0,0,0,65.61,39c1.36.08,2.94.08,3.41.08s.6-.17.6-.6V36H62.53a15.4,15.4,0,0,1,2.82,2.56L62,41.06a18.36,18.36,0,0,0-4.18-3.76L59.59,36H55.37V32.69H57a11.39,11.39,0,0,0-1.66-2.38A41.12,41.12,0,0,0,66,27.92a29.25,29.25,0,0,0-3.54-3.33c-1.36.51-2.94,1-4.61,1.49a11.5,11.5,0,0,0-2.47-2.86c5.12-1,9-2.51,11.18-4.18l4.18.86c-.6.51-1.2,1-1.84,1.45h5.93l.82-.13,2.6,1.32A17.67,17.67,0,0,1,69.79,30h4.65v2.73h4.82V36H74.44v2.64c0,2-.39,2.91-1.79,3.5a7.55,7.55,0,0,1-2.27.47,21.61,21.61,0,0,1,3.33,2.65l-1,1h7.08V50.4Zm-20-14.63c0,2-.6,6.18-3.41,8.53A20,20,0,0,0,40,42.12c2.3-1.79,2.77-4.77,2.81-6.35H40.39V31.84h9.09V29.49H42.06V20.28h4.22v5.38h3.2V19.3h4.61V43.62H49.48V35.77Zm15.91-7.34c-2.09.21-4.05.43-6,.64l-.43-2.56c1.79-.13,3.89-.3,6.36-.47Zm6.49,4.26V30.05a39.82,39.82,0,0,1-8.88,2.64Zm-3.25-8.61a35.65,35.65,0,0,1,2.69,2.47,14.35,14.35,0,0,0,3.24-2.47Z"/><path class="cls-2" d="M103.58,45.88c-5.2,2-10.84,4-15.19,5.54l-2-4.86c1.62-.47,3.63-1.07,5.85-1.75V28.47h-4.7V23.78h14.64v4.69H97.4V43.19c1.74-.55,3.58-1.15,5.33-1.75Zm5.55,4.78,4,2.68A40.35,40.35,0,0,1,102,59.1a28.84,28.84,0,0,0-3.11-3.45,35.51,35.51,0,0,0,9.94-5h-4.36V28.13h6.7c.22-1,.39-2,.52-2.94h-9V20.92h24.14v4.27h-9.51q-.51,1.53-1,2.94h9V50.66Zm0-16.09h11.26V31.88H109.13Zm0,6.15h11.26V38H109.13Zm0,6.27h11.26V44.21H109.13Zm9.94,3.75a61.24,61.24,0,0,1,8.53,5.46l-4,3a60.78,60.78,0,0,0-8.23-5.76Z"/><path class="cls-2" d="M157.68,21.56c-.25.38-.51.77-.81,1.15,3.8,4.48,10.46,8.28,17.71,10A19.74,19.74,0,0,0,171,37.47a36.78,36.78,0,0,1-17.19-11,50.31,50.31,0,0,1-17.41,11.65,27,27,0,0,0-3.11-4.91c8.15-2.43,16.38-8.32,20.3-14.5ZM143.39,36.79h5.38v4.82c0,5.68-.94,12.72-9.39,17.49a19.29,19.29,0,0,0-4.27-3.79c7.47-4,8.28-9.39,8.28-13.83Zm16-.08h5.42V59.06h-5.42Z"/><path class="cls-2" d="M194.12,45.84c-.08-.6-.21-1.33-.38-2.1-8.88,1.33-10.41,1.71-11.39,2.18-.26-.94-1.07-3.28-1.62-4.56,1.11-.3,2.09-1.24,3.45-2.82A43.72,43.72,0,0,0,187,35.13c-3.32.38-4.3.64-4.94.94a38.06,38.06,0,0,0-1.54-4.36,5.18,5.18,0,0,0,2.47-2.34,48,48,0,0,0,5.34-10.46l4.61,1.88a61.54,61.54,0,0,1-6.11,10.28l3.12-.21c1.07-1.79,2.17-3.63,3.07-5.5l4.27,2.77a72.81,72.81,0,0,1-9.13,12.37l4.6-.55c-.29-1.15-.68-2.22-1-3.24l3.67-1.2a66.3,66.3,0,0,1,2.73,8.92Zm-7.55,2.09a46.79,46.79,0,0,1-1.88,10.45,24.67,24.67,0,0,0-4-1.41,36.46,36.46,0,0,0,1.75-9.68Zm4.78-.82a88.24,88.24,0,0,1,1.19,9.13l-4,.86a77.61,77.61,0,0,0-1-9.3Zm4.56-1.32a49.18,49.18,0,0,1,2.27,7.64l-3.89,1.36a53.17,53.17,0,0,0-2-7.8Zm23.9-24.61s-.05,1.32-.09,1.92c-.43,9-.89,12.75-2.05,14.07a4.07,4.07,0,0,1-3.07,1.67,28.3,28.3,0,0,1-4.86.13,11.26,11.26,0,0,0-1.33-4.65c1.58.12,3,.17,3.8.17a1.55,1.55,0,0,0,1.32-.51c.56-.65.94-2.91,1.24-8.37h-5.46c-.77,6.06-2.69,11.27-8.92,14.55a13.14,13.14,0,0,0-3-3.84c4.9-2.43,6.35-6.31,6.95-10.71h-6.53V21.18ZM199,41.1h19.58V58.93h-5.25V57.18h-9.38V59.1H199Zm4.95,4.44v7.21h9.38V45.54Z"/></svg>