<svg id="圖層_1" data-name="圖層 1" xmlns="http://www.w3.org/2000/svg" viewBox="0 0 275.08 91.52"><defs><style>.cls-1{fill:#fff;}.cls-2{fill:#111212;}</style></defs><title>title</title><polygon class="cls-1" points="249.5 80.7 0 80.7 14.77 0 264.26 0 249.5 80.7"/><polygon class="cls-1" points="268.68 10.81 254.9 86.11 11.8 86.11 10.81 91.52 260.31 91.52 275.08 10.81 268.68 10.81"/><path class="cls-2" d="M48.16,39.78c-1.75-1.24-5.42-3.25-7.94-4.61L43,31.41c2.35,1.16,6.15,3,8,4.14ZM40.82,55.14A126.22,126.22,0,0,0,48.93,41.7l3.71,3.41c-2.26,4.48-5,9.34-7.55,13.48Zm9.17-27a86.37,86.37,0,0,0-7.76-4.69l2.86-3.67C47.47,21,51.19,22.84,53,24Zm18.9,8.32v5.37H77.6v17H72.77V57.31H59.93v1.75H55.37V41.82h8.7V36.45H52.72V31.58H64.07v-5c-2.82.43-5.63.73-8.32,1a17.83,17.83,0,0,0-1.41-4.35c7.26-.72,15.23-2.13,19.93-4l3.92,4a54.14,54.14,0,0,1-9.3,2.52v5.84H79.73v4.87Zm3.88,10H59.93V52.7H72.77Z"/><path class="cls-2" d="M125.81,28.9s0,1.66,0,2.26c-.39,17.36-.77,23.46-2.14,25.38a4.64,4.64,0,0,1-3.45,2.14,33.86,33.86,0,0,1-5.29.17,11,11,0,0,0-1.45-4.74c1.87.17,3.54.17,4.39.17a1.48,1.48,0,0,0,1.45-.72c.9-1.11,1.32-6.4,1.58-20h-3.8c-.55,11.69-2.47,20.39-9.68,26.07a15.43,15.43,0,0,0-3.16-3.55c-6,.64-12.07,1.24-16.59,1.67L87,53.47c2.34-.17,5.33-.38,8.61-.64V50.31H88.09V46.69H95.6V45.15H88.27V31.93H95.6V30.22H87.2V26.55h8.4V25c-2.51.22-5,.34-7.33.43a14.21,14.21,0,0,0-1.07-3.63,118.84,118.84,0,0,0,18.43-2.22L108,23.31c-2.31.51-5,.89-7.81,1.24v2h8.15V28.9h4.05c0-2.78,0-5.72,0-8.88h4.87c0,3.12,0,6.06-.09,8.88ZM92.28,37H95.6V35.08H92.28Zm3.32,5V40H92.28v2Zm4.57,10.49,7.46-.64c3.29-4.61,4.31-10.62,4.61-18.3h-3.92V30.22h-8.15v1.71h7.59V45.15h-7.59v1.54h7.93v3.62h-7.93ZM103.58,37V35.08h-3.41V37Zm-3.41,3v2h3.41V40Z"/><path class="cls-2" d="M142.41,48c-.38,4.05-1.75,8.32-5.38,11.14a16.54,16.54,0,0,0-2.94-3.2c2.73-1.84,3.63-5,3.88-7.94h-3.41V43.92h3.5V40.29H134v-4.1h2a24.28,24.28,0,0,0-1-6.52l3.28-.9a21.84,21.84,0,0,1,1.24,6.7l-2.6.72h3.58a76.32,76.32,0,0,0,1.58-7.59h-7.81V24.5h4.1a34.68,34.68,0,0,0-1.5-3.58L141,19.68a39,39,0,0,1,2.14,4.82h3.5v4.1h-4.4l3.54.77c-.64,2.3-1.32,4.82-1.92,6.82h2.82v4.1h-4.23v3.63H146V48ZM159,28.56s0,1.45,0,2c-.25,18.05-.42,24.19-1.45,25.9A3.25,3.25,0,0,1,155,58.21a18.49,18.49,0,0,1-3.63.21,10.21,10.21,0,0,0-1.07-4.14,19.15,19.15,0,0,0,2.48.13,1.1,1.1,0,0,0,1.11-.77c.64-1.06.85-6.06,1-20.73H153.2c-.47,10.83-1.83,19.62-5.8,26.15a28.13,28.13,0,0,0-3.28-2.86c3.67-5.5,4.95-13.57,5.33-23.29h-1.79V28.56h1.92c0-3,0-6.15,0-9.39h3.88c0,3.24,0,6.4-.09,9.39Zm10.41,11.77V44.6h3.71v4.09h-3.71V59h-4.57V48.69h-3.54V44.6h3.54V40.33h-4.31V36.24h2.13a24.1,24.1,0,0,0-1.06-6.7l3.24-.9a23.68,23.68,0,0,1,1.32,6.74l-2.9.86h4.18a75.18,75.18,0,0,0,1.37-7.68h-8.11v-4.1h4c-.51-1.28-1.07-2.64-1.62-3.8l4.09-1.28a46,46,0,0,1,2.27,5.08h3.75v4.1H169l3.59.76c-.6,2.35-1.2,4.91-1.67,6.92h2.77v4.09Z"/><path class="cls-2" d="M189,39.44a39,39,0,0,0-8-4.61l2.69-3.8a38.72,38.72,0,0,1,8.11,4.18Zm-6.48,15.74a118,118,0,0,0,8.06-13.44l3.75,3.41c-2.26,4.44-5,9.3-7.51,13.44Zm9-27a40.12,40.12,0,0,0-7.93-4.74l2.77-3.75A40.92,40.92,0,0,1,194.38,24Zm24.32,30.93a19.67,19.67,0,0,0-1.49-3.75c-14.21,1.7-16.38,2-17.79,2.77A46.43,46.43,0,0,0,194.68,53c1-.3,1.79-1.19,2.77-2.73A61.47,61.47,0,0,0,202,41.14h-8V36.36h10.11v-6h-8.4V25.53h8.4V19.17h5.17v6.36h8.7v4.82h-8.7v6h10.28v4.78H207.9a80.74,80.74,0,0,1-5.93,11l10-1a50.39,50.39,0,0,0-2.86-4.39l4.14-2c2.81,3.71,5.93,8.66,7,12.12Z"/></svg>