<svg id="圖層_1" data-name="圖層 1" xmlns="http://www.w3.org/2000/svg" viewBox="0 0 275.08 91.52"><defs><style>.cls-1{fill:#125994;}.cls-2{fill:#fff;}</style></defs><title>title</title><polygon class="cls-1" points="249.5 80.7 0 80.7 14.77 0 264.26 0 249.5 80.7"/><polygon class="cls-1" points="268.68 10.81 254.9 86.11 11.8 86.11 10.81 91.52 260.31 91.52 275.08 10.81 268.68 10.81"/><path class="cls-2" d="M79.9,53.94V58H48.54v-4.1H61.47V51.47h-9V48.4A23.48,23.48,0,0,1,50,51a28.92,28.92,0,0,0-2-4.23c-.52,4.44-1.75,9.35-4.57,12.8a18,18,0,0,0-3.92-3.28C43,52,43.29,46,43.29,41.57V34h5.76a20.5,20.5,0,0,0-2.13-2c3.07-.47,6.44-1.06,9.73-1.83-2.69-.69-5.46-1.28-8-1.75l2.39-1.84H43.72v-4H58.57A27.3,27.3,0,0,0,57,20.41l3.41-1.67a25.78,25.78,0,0,1,2.86,3.89H78v4H71.79l2,1.28c-1.54.73-3.33,1.45-5.25,2.14,2.52.68,4.82,1.36,6.74,2l-2.39,2h6.28V38h-31v3.58A42.36,42.36,0,0,1,48,46.09a20.72,20.72,0,0,0,4.86-7.68l4.31,1.28c-.21.56-.42,1.11-.68,1.71h4.95V38.8h5v2.6H77v4H66.46v2.21h9.3v3.89h-9.3v2.47ZM61.47,47.58V45.37h-7c-.47.76-.93,1.49-1.45,2.21ZM70.17,34c-2.09-.73-4.65-1.46-7.34-2.18-3.07.81-6.18,1.53-9.17,2.18ZM54.81,26.59c2.69.6,5.51,1.24,8.32,1.92a40.8,40.8,0,0,0,5.59-1.92Z"/><path class="cls-2" d="M88.61,39.86h16.25v19H99.78V56.93H93.43v2.13H88.61Zm4.82,4.87v7.33h6.35V44.73Zm26.06-8.41h-25V20.88h25Zm-5.16-10.58H99.4V31.5h14.93Zm10.92,14.12v19h-5.11v-2h-6.79v2.13h-4.86V39.86Zm-5.11,12.2V44.73h-6.79v7.33Z"/><path class="cls-2" d="M150.05,44.56,146,45.62V59.06h-4.82V46.82l-5.63,1.45-1.24-5.16c1.88-.35,4.31-.86,6.87-1.37V32.35h-2.47A35.85,35.85,0,0,1,137.12,38c-.85-.39-2.65-1.07-3.58-1.37,1.36-3.45,2.17-9,2.56-14.16l3.84.6c-.13,1.49-.3,2.94-.52,4.43h1.71V19.26H146v8.27h3.67v4.82H146v8.32l3.54-.81Zm23.29-.09h-4.1v8.92c0,2.51-.46,3.84-2.17,4.65s-4,.89-7.13.89a21.86,21.86,0,0,0-1.53-5c2,.08,4.31.08,5,.08s.81-.17.81-.72V44.47H150.64V39.82h13.57v-3h5v3h4.1Zm-14.5-16.85h-8V23h8v-3.8h5V23h8.53v4.61h-8.53v3.62H171v4.7H152.39v-4.7h6.45Zm-2.48,17a38.34,38.34,0,0,1,5.12,6.4l-4,2.6a38,38,0,0,0-4.86-6.7Z"/><path class="cls-2" d="M180.26,57.35c1.58-1.79,2.51-4.73,2.94-7.59l3.41,1c-.51,3.12-1.28,6.4-3.11,8.45Zm.94-12.84c2.13,0,4.77-.13,7.63-.21v-2h-6.61V38.41h6.61V36.62h-6.57V20.54h18.13V36.62h-7.12v1.79h6.87v3.84h-6.87v1.88l7.59-.3-.08,4c-6.91.38-14.21.77-19.37,1ZM186,33.25h3.49V24H186v1.79l2-.6a28.17,28.17,0,0,1,1.41,6.19l-2.3.64a30,30,0,0,0-1.15-6.1Zm4,16.34a40.22,40.22,0,0,1,.85,7.42l-3.24.47A39.89,39.89,0,0,0,187,50Zm4.14-.38a36.9,36.9,0,0,1,1.92,7.12L193,57.1a34.45,34.45,0,0,0-1.79-7.25ZM196.47,24h-3.88v7a43.86,43.86,0,0,0,1.62-5.84l2.26.81Zm0,9.3V26.59c-.77,1.88-1.54,4.06-2.13,5.42l-1.75-.68v1.92Zm1.83,15.1A27.21,27.21,0,0,1,201.63,55l-3.2,1.4a27.69,27.69,0,0,0-3.16-6.87Zm14-15.61v6.57h6.95V58.93h-4.82V57.4h-8v1.75H201.8V39.31h5.59v-20h4.91V28h8.32v4.7Zm2.13,11.18h-8v8.91h8Z"/></svg>