<svg id="圖層_1" data-name="圖層 1" xmlns="http://www.w3.org/2000/svg" viewBox="0 0 275.08 91.52"><defs><style>.cls-1{fill:#fff;}.cls-2{fill:#111212;}</style></defs><title>title</title><polygon class="cls-1" points="249.5 80.7 0 80.7 14.77 0 264.26 0 249.5 80.7"/><polygon class="cls-1" points="268.68 10.81 254.9 86.11 11.8 86.11 10.81 91.52 260.31 91.52 275.08 10.81 268.68 10.81"/><path class="cls-2" d="M48.16,39.78c-1.75-1.24-5.42-3.25-7.94-4.61L43,31.41c2.35,1.16,6.15,3,8,4.14ZM40.82,55.14A126.22,126.22,0,0,0,48.93,41.7l3.71,3.41c-2.26,4.48-5,9.34-7.55,13.48Zm9.17-27a86.37,86.37,0,0,0-7.76-4.69l2.86-3.67C47.47,21,51.19,22.84,53,24Zm18.9,8.32v5.37H77.6v17H72.77V57.31H59.93v1.75H55.37V41.82h8.7V36.45H52.72V31.59H64.07v-5c-2.82.43-5.63.73-8.32,1a17.83,17.83,0,0,0-1.41-4.35c7.26-.72,15.23-2.13,19.93-4l3.92,4a54.14,54.14,0,0,1-9.3,2.52v5.85H79.73v4.86Zm3.88,10H59.93V52.7H72.77Z"/><path class="cls-2" d="M125.81,28.9s0,1.66,0,2.26c-.39,17.36-.77,23.46-2.14,25.38a4.64,4.64,0,0,1-3.45,2.14,34,34,0,0,1-5.29.17,11.18,11.18,0,0,0-1.45-4.74c1.87.17,3.54.17,4.39.17a1.48,1.48,0,0,0,1.45-.72c.9-1.11,1.32-6.4,1.58-20h-3.8c-.55,11.69-2.47,20.39-9.68,26.07a15.43,15.43,0,0,0-3.16-3.55c-6,.64-12.07,1.24-16.6,1.67L87,53.47c2.34-.17,5.33-.38,8.61-.64V50.31H88.09V46.69H95.6V45.15H88.26V31.93H95.6V30.22H87.2V26.55h8.4V25c-2.51.22-5,.34-7.34.43a13.79,13.79,0,0,0-1.06-3.63,118.84,118.84,0,0,0,18.43-2.22L108,23.31c-2.31.51-5,.89-7.81,1.24v2h8.15V28.9h4.05c0-2.78,0-5.72,0-8.88h4.87c0,3.12,0,6.06-.09,8.88ZM92.28,37H95.6V35.08H92.28Zm3.32,5V40H92.28v2Zm4.57,10.49,7.46-.64c3.29-4.61,4.31-10.62,4.61-18.3h-3.92V30.22h-8.15v1.71h7.59V45.15h-7.59v1.54h7.93v3.62h-7.93ZM103.58,37V35.08h-3.41V37Zm-3.41,3v2h3.41V40Z"/><path class="cls-2" d="M157.68,21.56c-.25.38-.51.77-.81,1.15,3.8,4.48,10.46,8.28,17.71,10A19.74,19.74,0,0,0,171,37.47a36.86,36.86,0,0,1-17.19-11,50.31,50.31,0,0,1-17.41,11.65,27,27,0,0,0-3.11-4.91c8.15-2.43,16.38-8.32,20.3-14.5ZM143.39,36.79h5.38v4.82c0,5.68-.94,12.72-9.39,17.49a19.29,19.29,0,0,0-4.27-3.79c7.47-4,8.28-9.39,8.28-13.83Zm16-.08h5.42V59.06h-5.42Z"/><path class="cls-2" d="M194.12,45.84c-.08-.6-.21-1.33-.38-2.1-8.88,1.33-10.41,1.71-11.39,2.18-.26-.94-1.07-3.29-1.62-4.57,1.1-.29,2.09-1.23,3.45-2.81A43.72,43.72,0,0,0,187,35.13c-3.32.38-4.3.64-4.94.93a38.64,38.64,0,0,0-1.54-4.35,5.18,5.18,0,0,0,2.47-2.34,48,48,0,0,0,5.34-10.46l4.6,1.88a60.83,60.83,0,0,1-6.1,10.28l3.12-.21c1.07-1.79,2.17-3.63,3.07-5.5l4.27,2.77a72.81,72.81,0,0,1-9.13,12.37l4.6-.55c-.29-1.15-.68-2.22-1-3.24l3.67-1.2a66.3,66.3,0,0,1,2.73,8.92Zm-7.55,2.08a46.78,46.78,0,0,1-1.88,10.46,25,25,0,0,0-4-1.41,36.46,36.46,0,0,0,1.75-9.68Zm4.78-.81a88.24,88.24,0,0,1,1.19,9.13l-4,.86a77.61,77.61,0,0,0-1-9.3Zm4.56-1.32a49.18,49.18,0,0,1,2.27,7.64l-3.89,1.36a52,52,0,0,0-2-7.8Zm23.9-24.62s-.05,1.33-.09,1.92c-.43,9-.9,12.76-2.05,14.08a4.07,4.07,0,0,1-3.07,1.67,28.3,28.3,0,0,1-4.86.13,11.26,11.26,0,0,0-1.33-4.65c1.58.12,3,.17,3.8.17a1.53,1.53,0,0,0,1.32-.52c.56-.64.94-2.9,1.24-8.36h-5.46c-.77,6.06-2.69,11.27-8.92,14.55a13,13,0,0,0-3-3.84c4.91-2.43,6.36-6.31,7-10.71h-6.53V21.17ZM199,41.1h19.58V58.93h-5.25V57.18h-9.39V59.1H199Zm4.94,4.44v7.21h9.39V45.54Z"/></svg>